# xmcd
#
# Track frame offsets:
#	182
#	13845
#	27125
#	38962
#	48780
#	60997
#	71220
#	84930
#	97232
#	109657
#	121167
#	130497
#	143430
#	157302
#	170175
#	184152
#	194037
#	212400
#	227357
#	242360
#	255835
#	266485
#	278175
#
# Disc length: 3874 seconds
# Revision: 0
# Processed by: cddbd v1.5.2PL0 Copyright (c) Steve Scherf et al.
# Submitted via: dBpowerAMP V12.0
#
DISCID=400f2017
DTITLE=Tom T. Hall - Ballad Of Forty Dollars/Homecoming [Bear Family BCD 15631]
DYEAR=1992
DGENRE=Country
TTITLE0=That's How I Got To Memphis [Ballad Of Forty Dollars LP]
TTITLE1=Cloudy Day
TTITLE2=Shame On The Rain
TTITLE3=Highways
TTITLE4=Forbidden Flowers
TTITLE5=Ain't Got The Time
TTITLE6=Ballad Of Forty Dollars
TTITLE7=I Washed My Face In The Morning Dew
TTITLE8=A Picture Of Your Mother
TTITLE9=The World The Way I Want It
TTITLE10=Over And Over Again
TTITLE11=Beauty Is A Fading Flower
TTITLE12=A Week In The Country Jail [Homecoming LP]
TTITLE13=Strawberry Farms
TTITLE14=Shoeshine Man
TTITLE15=Kentucky In The Morning
TTITLE16=Nashville Is A Groovy Little town
TTITLE17=Margie's At Lincoln Park Inn
TTITLE18=Homecoming
TTITLE19=The Carter Boys
TTITLE20=Flat-Footin' It
TTITLE21=George (And The Northwoods)
TTITLE22=I Miss A Lot Of Trains
EXTD=
EXTT0=
EXTT1=
EXTT2=
EXTT3=
EXTT4=
EXTT5=
EXTT6=
EXTT7=
EXTT8=
EXTT9=
EXTT10=
EXTT11=
EXTT12=
EXTT13=
EXTT14=
EXTT15=
EXTT16=
EXTT17=
EXTT18=
EXTT19=
EXTT20=
EXTT21=
EXTT22=
PLAYORDER=
